<svg width="12" height="14" viewBox="0 0 12 14" fill="none" xmlns="http://www.w3.org/2000/svg">
<path fill-rule="evenodd" clip-rule="evenodd" d="M6.10607 10.092L8.00046 8.1787C8.19188 7.97869 8.19188 7.66536 7.99386 7.47203C7.80244 7.2787 7.49221 7.2787 7.30079 7.47203L6.25128 8.5387V5.32536C6.25128 5.04536 6.03346 4.82536 5.76283 4.82536C5.49221 4.82536 5.26778 5.04536 5.26778 5.32536V8.5387L4.21828 7.47203C4.02686 7.2787 3.71663 7.2787 3.52521 7.47203C3.33379 7.66536 3.33379 7.97869 3.52521 8.1787L5.413 10.092C5.4592 10.1387 5.51201 10.172 5.57141 10.1987C5.63082 10.2254 5.69683 10.2387 5.76283 10.2387C5.82884 10.2387 5.88825 10.2254 5.94765 10.1987C6.00706 10.172 6.05986 10.1387 6.10607 10.092ZM10.8891 5.01577C11.0443 5.01398 11.2132 5.01203 11.3667 5.01203C11.5384 5.01203 11.6704 5.14536 11.6704 5.31203V10.672C11.6704 12.3254 10.337 13.6654 8.70007 13.6654L3.45255 13.6654C1.72978 13.6654 0.337036 12.2587 0.337036 10.5254V3.3387C0.337036 1.68536 1.66377 0.332031 3.31393 0.332031L6.83869 0.332031C7.0037 0.332031 7.14232 0.472031 7.14232 0.638698V2.78536C7.14232 4.00536 8.13242 5.00536 9.34694 5.01203C9.6259 5.01203 9.87552 5.01415 10.0934 5.016C10.2622 5.01743 10.412 5.0187 10.5417 5.0187C10.6356 5.0187 10.7574 5.01729 10.8891 5.01577ZM11.0734 4.04277C10.5315 4.04477 9.89193 4.04277 9.43186 4.0381C8.70183 4.0381 8.10051 3.43077 8.10051 2.69344V0.936102C8.10051 0.648769 8.44572 0.506102 8.64242 0.713435C9.15095 1.24699 9.92954 2.06479 10.5874 2.7558C10.8535 3.03526 11.0998 3.29398 11.3005 3.50477C11.4932 3.70677 11.352 4.0421 11.0734 4.04277Z" fill="black"/>
</svg>
